<svg width="117" height="59" viewBox="0 0 117 59" fill="none" xmlns="http://www.w3.org/2000/svg">
<path d="M2.044 25V5.4H10.276C11.4893 5.4 12.5533 5.61467 13.468 6.044C14.4013 6.45467 15.12 7.052 15.624 7.836C16.1467 8.62 16.408 9.55333 16.408 10.636V10.944C16.408 12.176 16.1093 13.1653 15.512 13.912C14.9333 14.64 14.224 15.1533 13.384 15.452V15.9C14.0933 15.9373 14.6627 16.18 15.092 16.628C15.5213 17.0573 15.736 17.6827 15.736 18.504V25H12.684V18.924C12.684 18.42 12.5533 18.0187 12.292 17.72C12.0307 17.4213 11.6107 17.272 11.032 17.272H5.068V25H2.044ZM5.068 14.528H9.94C11.0227 14.528 11.8627 14.2573 12.46 13.716C13.0573 13.156 13.356 12.4 13.356 11.448V11.224C13.356 10.272 13.0573 9.52533 12.46 8.984C11.8813 8.424 11.0413 8.144 9.94 8.144H5.068V14.528ZM24.6634 25.392C23.6741 25.392 22.7874 25.224 22.0034 24.888C21.2381 24.552 20.6221 24.0573 20.1554 23.404C19.7074 22.7507 19.4834 21.9573 19.4834 21.024C19.4834 20.072 19.7074 19.288 20.1554 18.672C20.6221 18.0373 21.2474 17.5613 22.0314 17.244C22.8341 16.9267 23.7394 16.768 24.7474 16.768H28.9474V15.872C28.9474 15.0693 28.7047 14.4253 28.2194 13.94C27.7341 13.4547 26.9874 13.212 25.9794 13.212C24.9901 13.212 24.2341 13.4453 23.7114 13.912C23.1887 14.3787 22.8434 14.9853 22.6754 15.732L19.9874 14.864C20.2114 14.1173 20.5661 13.4453 21.0514 12.848C21.5554 12.232 22.2181 11.7373 23.0394 11.364C23.8607 10.9907 24.8501 10.804 26.0074 10.804C27.7994 10.804 29.2087 11.2613 30.2354 12.176C31.2621 13.0907 31.7754 14.388 31.7754 16.068V21.752C31.7754 22.312 32.0367 22.592 32.5594 22.592H33.7354V25H31.5794C30.9261 25 30.3941 24.832 29.9834 24.496C29.5727 24.16 29.3674 23.7027 29.3674 23.124V23.04H28.9474C28.7981 23.32 28.5741 23.6467 28.2754 24.02C27.9767 24.3933 27.5381 24.72 26.9594 25C26.3807 25.2613 25.6154 25.392 24.6634 25.392ZM25.0834 23.012C26.2407 23.012 27.1741 22.6853 27.8834 22.032C28.5927 21.36 28.9474 20.4453 28.9474 19.288V19.008H24.9154C24.1501 19.008 23.5341 19.176 23.0674 19.512C22.6007 19.8293 22.3674 20.3053 22.3674 20.94C22.3674 21.5747 22.6101 22.0787 23.0954 22.452C23.5807 22.8253 24.2434 23.012 25.0834 23.012ZM37.0996 30.6V11.196H39.9276V13.184H40.3756C40.7302 12.568 41.2622 12.0173 41.9716 11.532C42.6996 11.0467 43.7356 10.804 45.0796 10.804C46.2369 10.804 47.2916 11.084 48.2436 11.644C49.2142 12.204 49.9889 13.016 50.5676 14.08C51.1649 15.1253 51.4636 16.3947 51.4636 17.888V18.308C51.4636 19.8013 51.1742 21.08 50.5956 22.144C50.0169 23.1893 49.2422 23.992 48.2716 24.552C47.3009 25.112 46.2369 25.392 45.0796 25.392C44.1836 25.392 43.4276 25.28 42.8116 25.056C42.1956 24.832 41.7009 24.552 41.3276 24.216C40.9542 23.8613 40.6556 23.4973 40.4316 23.124H39.9836V30.6H37.0996ZM44.2396 22.872C45.5089 22.872 46.5449 22.4707 47.3476 21.668C48.1502 20.8653 48.5516 19.7173 48.5516 18.224V17.972C48.5516 16.4973 48.1409 15.3587 47.3196 14.556C46.5169 13.7533 45.4902 13.352 44.2396 13.352C43.0076 13.352 41.9809 13.7533 41.1596 14.556C40.3569 15.3587 39.9556 16.4973 39.9556 17.972V18.224C39.9556 19.7173 40.3569 20.8653 41.1596 21.668C41.9809 22.4707 43.0076 22.872 44.2396 22.872ZM55.5971 30.6V11.196H58.4251V13.184H58.8731C59.2277 12.568 59.7597 12.0173 60.4691 11.532C61.1971 11.0467 62.2331 10.804 63.5771 10.804C64.7344 10.804 65.7891 11.084 66.7411 11.644C67.7117 12.204 68.4864 13.016 69.0651 14.08C69.6624 15.1253 69.9611 16.3947 69.9611 17.888V18.308C69.9611 19.8013 69.6717 21.08 69.0931 22.144C68.5144 23.1893 67.7397 23.992 66.7691 24.552C65.7984 25.112 64.7344 25.392 63.5771 25.392C62.6811 25.392 61.9251 25.28 61.3091 25.056C60.6931 24.832 60.1984 24.552 59.8251 24.216C59.4517 23.8613 59.1531 23.4973 58.9291 23.124H58.4811V30.6H55.5971ZM62.7371 22.872C64.0064 22.872 65.0424 22.4707 65.8451 21.668C66.6477 20.8653 67.0491 19.7173 67.0491 18.224V17.972C67.0491 16.4973 66.6384 15.3587 65.8171 14.556C65.0144 13.7533 63.9877 13.352 62.7371 13.352C61.5051 13.352 60.4784 13.7533 59.6571 14.556C58.8544 15.3587 58.4531 16.4973 58.4531 17.972V18.224C58.4531 19.7173 58.8544 20.8653 59.6571 21.668C60.4784 22.4707 61.5051 22.872 62.7371 22.872ZM80.5626 25.392C79.1812 25.392 77.9492 25.112 76.8666 24.552C75.8026 23.9733 74.9626 23.152 74.3466 22.088C73.7306 21.024 73.4226 19.764 73.4226 18.308V17.888C73.4226 16.432 73.7306 15.1813 74.3466 14.136C74.9626 13.072 75.8026 12.2507 76.8666 11.672C77.9492 11.0933 79.1812 10.804 80.5626 10.804C81.9439 10.804 83.1759 11.0933 84.2586 11.672C85.3412 12.2507 86.1906 13.072 86.8066 14.136C87.4226 15.1813 87.7306 16.432 87.7306 17.888V18.308C87.7306 19.764 87.4226 21.024 86.8066 22.088C86.1906 23.152 85.3412 23.9733 84.2586 24.552C83.1759 25.112 81.9439 25.392 80.5626 25.392ZM80.5626 22.816C81.8319 22.816 82.8586 22.4147 83.6426 21.612C84.4452 20.7907 84.8466 19.6613 84.8466 18.224V17.972C84.8466 16.5347 84.4546 15.4147 83.6706 14.612C82.8866 13.7907 81.8506 13.38 80.5626 13.38C79.3119 13.38 78.2852 13.7907 77.4826 14.612C76.6986 15.4147 76.3066 16.5347 76.3066 17.972V18.224C76.3066 19.6613 76.6986 20.7907 77.4826 21.612C78.2852 22.4147 79.3119 22.816 80.5626 22.816ZM91.8811 25V11.196H94.7091V12.82H95.1571C95.3811 12.2413 95.7358 11.8213 96.2211 11.56C96.7251 11.28 97.3411 11.14 98.0691 11.14H99.7211V13.744H97.9571C97.0238 13.744 96.2585 14.0053 95.6611 14.528C95.0638 15.032 94.7651 15.816 94.7651 16.88V25H91.8811ZM108.449 25C107.609 25 106.937 24.748 106.433 24.244C105.948 23.74 105.705 23.068 105.705 22.228V13.632H101.897V11.196H105.705V6.632H108.589V11.196H112.705V13.632H108.589V21.724C108.589 22.284 108.851 22.564 109.373 22.564H112.257V25H108.449Z" fill="#1B3647"/>
<path d="M22.308 35.484L29.504 35.344V37.08L26.928 37.78L27.74 36.884L22.616 55.028H19.368L14.916 39.516H15.56L10.912 55.028H7.664L2.96 37.136L3.324 37.724L1.112 37.22V35.484L8.644 35.344V37.08L6.04 37.808L6.488 37.136L9.932 51.92L9.232 51.892L13.88 35.456L17.044 35.344L21.552 51.836L20.852 51.864L24.688 37.164L24.996 37.78L22.308 37.22V35.484ZM34.4862 55.308C33.1796 55.308 32.0222 55.028 31.0142 54.468C30.0062 53.8893 29.2222 53.04 28.6622 51.92C28.1022 50.8 27.8222 49.428 27.8222 47.804C27.8222 46.1427 28.1116 44.7147 28.6902 43.52C29.2876 42.3253 30.1182 41.4107 31.1822 40.776C32.2649 40.1227 33.5436 39.796 35.0182 39.796C36.4182 39.796 37.5569 40.0853 38.4342 40.664C39.3302 41.224 39.9929 41.9987 40.4222 42.988C40.8516 43.9773 41.0663 45.0973 41.0663 46.348C41.0663 46.628 41.0569 46.908 41.0382 47.188C41.0196 47.468 40.9822 47.776 40.9262 48.112H30.5102V45.984H37.9862L37.5942 46.236C37.6129 45.4893 37.5289 44.8173 37.3422 44.22C37.1742 43.6227 36.8756 43.1467 36.4462 42.792C36.0169 42.4373 35.4476 42.26 34.7382 42.26C33.9356 42.26 33.2729 42.484 32.7502 42.932C32.2462 43.38 31.8729 43.9867 31.6302 44.752C31.4062 45.5173 31.2942 46.3853 31.2942 47.356C31.2942 48.42 31.4342 49.3627 31.7142 50.184C31.9942 50.9867 32.4329 51.6213 33.0302 52.088C33.6276 52.5547 34.3836 52.788 35.2982 52.788C35.9516 52.788 36.6609 52.6667 37.4262 52.424C38.1916 52.1813 38.9849 51.808 39.8063 51.304L40.9543 53.124C39.8903 53.852 38.8076 54.4027 37.7062 54.776C36.6049 55.1307 35.5316 55.308 34.4862 55.308ZM41.9021 55V53.264L44.3101 52.62L43.8901 53.124V42.008L44.3101 42.568L41.9021 41.924V40.188L46.4941 39.964L46.9421 42.68L46.4941 42.512C47.4088 41.5787 48.3701 40.8973 49.3781 40.468C50.3861 40.02 51.3474 39.796 52.2621 39.796C53.5128 39.796 54.5488 40.188 55.3701 40.972C56.2101 41.756 56.6208 42.9413 56.6021 44.528V53.124L56.2661 52.62L58.5901 53.264V55H51.4221V53.264L53.6621 52.676L53.2421 53.208V45.256C53.2421 44.2667 53.0181 43.5387 52.5701 43.072C52.1408 42.6053 51.5621 42.372 50.8341 42.372C50.2741 42.372 49.6581 42.5307 48.9861 42.848C48.3141 43.1467 47.6514 43.6133 46.9981 44.248L47.2501 43.716V53.208L46.9141 52.676L49.0701 53.264V55H41.9021ZM58.6922 55V53.264L61.1002 52.62L60.6802 53.124V42.008L61.1002 42.568L58.6922 41.924V40.188L63.2842 39.964L63.7322 42.68L63.2842 42.512C64.1989 41.5787 65.1602 40.8973 66.1683 40.468C67.1762 40.02 68.1376 39.796 69.0522 39.796C70.3029 39.796 71.3389 40.188 72.1602 40.972C73.0003 41.756 73.4109 42.9413 73.3923 44.528V53.124L73.0562 52.62L75.3802 53.264V55H68.2122V53.264L70.4523 52.676L70.0322 53.208V45.256C70.0322 44.2667 69.8082 43.5387 69.3602 43.072C68.9309 42.6053 68.3522 42.372 67.6242 42.372C67.0642 42.372 66.4482 42.5307 65.7763 42.848C65.1042 43.1467 64.4416 43.6133 63.7882 44.248L64.0402 43.716V53.208L63.7042 52.676L65.8602 53.264V55H58.6922ZM80.8304 52.984L80.5504 52.676L82.7904 53.264V55H75.4824V53.264L77.7224 52.676L77.4704 52.984V42.232L77.6944 42.484L75.4824 41.924V40.188L80.8304 39.992V52.984ZM79.0104 37.528C78.3944 37.528 77.8997 37.3507 77.5264 36.996C77.1531 36.6413 76.9664 36.1467 76.9664 35.512C76.9664 34.8213 77.1624 34.308 77.5544 33.972C77.9464 33.6173 78.4411 33.44 79.0384 33.44C79.6171 33.44 80.0931 33.608 80.4664 33.944C80.8584 34.28 81.0544 34.7933 81.0544 35.484C81.0544 36.156 80.8584 36.6693 80.4664 37.024C80.0744 37.36 79.5891 37.528 79.0104 37.528ZM83.0577 55V53.264L85.4657 52.62L85.0457 53.124V42.008L85.4657 42.568L83.0577 41.924V40.188L87.6497 39.964L88.0977 42.68L87.6497 42.512C88.5644 41.5787 89.5257 40.8973 90.5337 40.468C91.5417 40.02 92.5031 39.796 93.4177 39.796C94.6684 39.796 95.7044 40.188 96.5257 40.972C97.3657 41.756 97.7764 42.9413 97.7577 44.528V53.124L97.4217 52.62L99.7457 53.264V55H92.5777V53.264L94.8177 52.676L94.3977 53.208V45.256C94.3977 44.2667 94.1737 43.5387 93.7257 43.072C93.2964 42.6053 92.7177 42.372 91.9897 42.372C91.4297 42.372 90.8137 42.5307 90.1417 42.848C89.4697 43.1467 88.8071 43.6133 88.1537 44.248L88.4057 43.716V53.208L88.0697 52.676L90.2257 53.264V55H83.0577ZM99.4839 55V53.264L101.864 52.62L101.444 53.264V35.4L101.724 35.82L99.4839 35.232V33.496L104.804 33.272V46.208L104.244 45.676H107.912L107.072 46.096L109.76 41.924L110.012 42.316L107.94 41.924V40.216L114.52 39.992V41.728L112.14 42.232L113.064 41.7L109.62 46.936L109.648 46.04L113.512 53.152L112.98 52.704L115.164 53.264V55H110.964L107.212 47.692L107.716 47.944H104.244L104.804 47.692V53.264L104.44 52.592L106.708 53.264V55H99.4839Z" fill="#026B89"/>
</svg>
