<svg width="111" height="39" viewBox="0 0 111 39" fill="none" xmlns="http://www.w3.org/2000/svg">
<path d="M94.5505 9.8C94.5505 7.18667 95.3439 5.22667 96.9305 3.92001C98.5172 2.52001 100.291 1.82001 102.251 1.82001C104.304 1.82001 106.171 2.56668 107.851 4.06001C109.624 5.55334 110.511 7.79334 110.511 10.78C110.511 13.6733 109.484 17.5 107.431 22.26C105.471 26.9267 101.924 32.2 96.7905 38.08L91.8905 34.86C94.4105 30.4733 96.0439 27.1133 96.7905 24.78C97.6305 22.4467 98.0505 20.7667 98.0505 19.74C98.0505 18.62 97.7239 17.64 97.0705 16.8C96.5105 15.8667 95.9505 14.8867 95.3905 13.86C94.8305 12.74 94.5505 11.3867 94.5505 9.8ZM71.4505 9.8C71.4505 7.18667 72.2439 5.22667 73.8305 3.92001C75.4172 2.52001 77.1905 1.82001 79.1505 1.82001C81.2039 1.82001 83.0705 2.56668 84.7505 4.06001C86.5239 5.55334 87.4105 7.79334 87.4105 10.78C87.4105 13.6733 86.3839 17.5 84.3305 22.26C82.3705 26.9267 78.8239 32.2 73.6905 38.08L68.7905 34.86C71.3105 30.4733 72.9439 27.1133 73.6905 24.78C74.5305 22.4467 74.9505 20.7667 74.9505 19.74C74.9505 18.62 74.6239 17.64 73.9705 16.8C73.4105 15.8667 72.8505 14.8867 72.2905 13.86C71.7305 12.74 71.4505 11.3867 71.4505 9.8Z" fill="#1EA4CB"/>
<path d="M15.82 28.28C15.82 30.8933 15.0267 32.9 13.44 34.3C11.8533 35.6067 10.08 36.26 8.12 36.26C6.06667 36.26 4.2 35.5133 2.52 34.02C0.84 32.5267 0 30.2867 0 27.3C0 24.3133 1.02667 20.4867 3.08 15.82C5.13333 11.1533 8.63334 5.88 13.58 0L18.48 3.22C16.1467 7.51333 14.56 10.8267 13.72 13.16C12.88 15.4933 12.46 17.22 12.46 18.34C12.46 19.46 12.74 20.4867 13.3 21.42C13.86 22.26 14.42 23.24 14.98 24.36C15.54 25.3867 15.82 26.6933 15.82 28.28ZM38.92 28.28C38.92 30.8933 38.1267 32.9 36.54 34.3C34.9533 35.6067 33.18 36.26 31.22 36.26C29.1667 36.26 27.3 35.5133 25.62 34.02C23.94 32.5267 23.1 30.2867 23.1 27.3C23.1 24.3133 24.1267 20.4867 26.18 15.82C28.2333 11.1533 31.7333 5.88 36.68 0L41.58 3.22C39.2467 7.51333 37.66 10.8267 36.82 13.16C35.98 15.4933 35.56 17.22 35.56 18.34C35.56 19.46 35.84 20.4867 36.4 21.42C36.96 22.26 37.52 23.24 38.08 24.36C38.64 25.3867 38.92 26.6933 38.92 28.28Z" fill="#1EA4CB"/>
</svg>
